<svg id="Layer_1" data-name="Layer 1" xmlns="http://www.w3.org/2000/svg" viewBox="0 0 162.69 194.39"><defs><style>.cls-1{fill:#376271;}</style></defs><path class="cls-1" d="M94.42,172.75a2.86,2.86,0,1,1,2.72-2.82A2.7,2.7,0,0,1,94.42,172.75Z" transform="translate(-18.65 -2.81)"/><path class="cls-1" d="M65.54,170H63.15l.92-3.74h2.4Z" transform="translate(-18.65 -2.81)"/><path class="cls-1" d="M76,172.74a2.85,2.85,0,1,1,2.71-2.8A2.64,2.64,0,0,1,76,172.74Z" transform="translate(-18.65 -2.81)"/><path class="cls-1" d="M101.5,109.08a85.88,85.88,0,0,1-1.26-17.7,3,3,0,0,0,2.2-1.61,2.8,2.8,0,0,0,.23-2,2.83,2.83,0,0,0-1-1.54A2.94,2.94,0,0,0,97,87.6a2.88,2.88,0,0,0,.19,2.19,3.08,3.08,0,0,0,1.65,1.46c-.06.75-.11,1.51-.14,2.25-.06,1.9-.13,3.79-.15,5.7q0,3.15.09,6.29c0,1.15.08,2.29.13,3.44A29.87,29.87,0,0,1,85.54,88a29.2,29.2,0,0,1,5.93-22.74,31,31,0,0,1,7.48-7,2.21,2.21,0,0,1,2.84,0A32.21,32.21,0,0,1,112,69.74a29.63,29.63,0,0,1,3.47,13.8C115.17,94.47,110.5,103,101.5,109.08Z" transform="translate(-18.65 -2.81)"/><path class="cls-1" d="M76.07,167a2.85,2.85,0,0,0,0,5.7,2.64,2.64,0,0,0,2.71-2.8A2.67,2.67,0,0,0,76.07,167Z" transform="translate(-18.65 -2.81)"/><path class="cls-1" d="M94.46,167a2.86,2.86,0,1,0,2.68,2.89A2.68,2.68,0,0,0,94.46,167Z" transform="translate(-18.65 -2.81)"/><polygon class="cls-1" points="44.5 167.21 46.89 167.21 47.82 163.47 45.41 163.47 44.5 167.21"/><path class="cls-1" d="M177.67,91.65a80.61,80.61,0,0,0-16-28.89,79.38,79.38,0,0,0-30.2-21.9c-2.86-1.19-5.82-2.12-8.73-3.14a1.1,1.1,0,0,1-.8-1.25c0-4.24,0-8.47,0-12.71,0-1.53,0-1.56,1.55-1.53,3.43.07,6.27-1,8.23-4,1.41-2.17,1.4-4.59,1.33-7a8.7,8.7,0,0,0-8.62-8.36H99.18c-8.07,0-16.16,0-24.23,0a9.12,9.12,0,0,0-5.49,1.7A7.62,7.62,0,0,0,66,11c0,1,0,2.07,0,3.1a7.91,7.91,0,0,0,4.26,7c2.13,1.27,4.5,1.12,6.83,1.11.56,0,.7.16.7.71q0,6.87,0,13.73c0,.66-.17,1-.82,1.14A78.82,78.82,0,0,0,61,44.34a80.63,80.63,0,0,0-31.74,31,77,77,0,0,0-10.38,33.1A118.27,118.27,0,0,0,19.17,126,68.44,68.44,0,0,0,25,147.9a80.7,80.7,0,0,0,30,35.83A77.46,77.46,0,0,0,93.69,197a83.14,83.14,0,0,0,22.53-1.28A80.73,80.73,0,0,0,162,168.51a81.36,81.36,0,0,0,15.71-76.86ZM74.88,16.91c-2.22,0-3.45-1-3.78-3.16a8.39,8.39,0,0,1,.11-2.87,3.19,3.19,0,0,1,3.48-2.67c5.86,0,11.74-.07,17.59-.07q15.36,0,30.7,0a10.92,10.92,0,0,1,2.55.31,2.6,2.6,0,0,1,2.11,2.2,12.27,12.27,0,0,1,0,3.63C127.37,16,126,16.91,124,16.93H99.32Q87.08,16.9,74.88,16.91ZM70.32,166.3h-1.8L67.63,170h1.42v1.8H67.19l-.62,2.55H64.45l.65-2.55H62.8l-.65,2.55H60l.62-2.55H59.29V170H61.1L62,166.3H60.53v-1.78h1.91l.67-2.77h2.12l-.67,2.77h2.29l.68-2.77h2.11L69,164.52h1.35Zm5.79,12.42a8.24,8.24,0,0,1-4.2-1.13l.76-1.62a7.85,7.85,0,0,0,3.4.93c1.62,0,2.57-.79,2.66-2.18,0-.62.07-1.18.12-1.86h0a3.31,3.31,0,0,1-3.08,1.63,4.62,4.62,0,0,1,0-9.23,3.43,3.43,0,0,1,3.16,1.67h0c0-.52,0-1,0-1.47h1.87v8.89h0C80.76,177.17,79,178.72,76.11,178.72ZM88.6,167.23a2.29,2.29,0,0,0-.88-.15c-1.38,0-2.29,1-2.29,2.64v4.59h-2v-8.86h1.87c0,.47,0,.93-.06,1.46h0a2.8,2.8,0,0,1,2.66-1.64,3.87,3.87,0,0,1,1.2.18Zm5.76,7.29a4.4,4.4,0,0,1-4.64-4.59,4.51,4.51,0,0,1,4.79-4.66,4.39,4.39,0,0,1,4.63,4.59A4.5,4.5,0,0,1,94.36,174.52Zm16.58-.2h-2.23L108,172c-.48-1.42-.89-2.88-1.14-3.78h0c-.25.92-.7,2.36-1.14,3.78l-.73,2.35h-2.24l-3-8.86h2.13l1,3.35c.44,1.43.76,2.55,1,3.46h0c.26-.92.56-2,1-3.41l1.11-3.4h1.67l1.08,3.39c.47,1.46.78,2.51,1,3.43h0c.23-.92.55-2,1-3.44l1-3.38H114Zm7.37.21c-1.85,0-2.79-1.05-2.79-3.1v-9.67h2v9.51c0,1.1.32,1.48,1.19,1.48a3,3,0,0,0,.71-.09l.42,1.62A5.34,5.34,0,0,1,118.31,174.53Zm10.53-.21H127.1c0-.47,0-.93.05-1.46h-.05a3.6,3.6,0,0,1-3.16,1.59c-1.73,0-3.39-.87-3.39-2.87s1.74-2.94,3.55-2.94a5.58,5.58,0,0,1,2.74.62v-.49c0-1.38-1.16-1.82-2.51-1.82a8.22,8.22,0,0,0-2.63.55l-.47-1.56a8,8,0,0,1,3.24-.68c2.45,0,4.37.82,4.37,3.48Zm7.57.2a3.36,3.36,0,0,1-3.11-1.65h-.06v1.46h-1.86V161.78h2v2.71a16.85,16.85,0,0,1-.16,2.5h0a3.57,3.57,0,0,1,3.23-1.7,4.24,4.24,0,0,1,4.27,4.57A4.34,4.34,0,0,1,136.41,174.52Zm38.21-52.78a71.16,71.16,0,0,1-5.69,23.19c-.39.9-.81,1.81-1.17,2.73a1.38,1.38,0,0,1-1.51.91h-58q0-11.77,0-23.54a1.2,1.2,0,0,1,0-.19c.18-.62.34-1.25.52-1.85.43.28.87.54,1.29.83a30.35,30.35,0,0,0,39.68-4.11,51.65,51.65,0,0,0,3.34-4.28,1.7,1.7,0,0,0-.06-2.2,30.67,30.67,0,0,0-10.25-9.79,28.59,28.59,0,0,0-17.56-4.08c-9.78,1-17.59,5.48-23,13.79a4.1,4.1,0,0,0-.38.72c1.38-.06,2.75-.13,4.14-.17,2.2,0,4.42-.1,6.62-.08,2,0,4,.09,6,.16.79,0,1.58.09,2.38.14a3.16,3.16,0,0,1,1.52-1.73,3,3,0,0,1,2.31-.21,3.08,3.08,0,0,1-.29,6,3,3,0,0,1-2-.27,3.15,3.15,0,0,1-1.68-2.32c-6.55,0-13,.11-19.44,1.5q-.06,15.86,0,31.71H98.71c0-10.57.07-21.14,0-31.71-6.4-1.39-12.89-1.54-19.44-1.5a3.16,3.16,0,0,1-1.69,2.32,3,3,0,0,1-2,.27,3.08,3.08,0,0,1-.3-6,3,3,0,0,1,2.31.21,3.22,3.22,0,0,1,1.53,1.73c.79,0,1.59-.11,2.37-.14,2-.07,4-.15,6-.16,2.2,0,4.41,0,6.61.08,1.39,0,2.77.11,4.15.17a4.1,4.1,0,0,0-.38-.72c-5.44-8.31-13.26-12.83-23-13.79a28.59,28.59,0,0,0-17.56,4.08,30.67,30.67,0,0,0-10.25,9.79,1.7,1.7,0,0,0-.07,2.2,54,54,0,0,0,3.35,4.28A30.33,30.33,0,0,0,90,123.82c.42-.29.87-.55,1.3-.83.18.6.34,1.23.51,1.85a.6.6,0,0,1,0,.19q0,11.76,0,23.54H89.63l-.15,0c-4.57,0-9.14,0-13.72,0H39.58l-5.71,0a2,2,0,0,1-2.06-1.32,82.21,82.21,0,0,1-5.17-15.42,72,72,0,0,1-1.35-22.13c1.43-19,9.28-35,22.94-48.14A73,73,0,0,1,81,43.45c2.51-.64,3.25-1.59,3.25-4.2q0-8.13,0-16.26c0-.56.16-.73.7-.73h29.86c.59,0,.68.24.68.75,0,5.58,0,11.14,0,16.72a3.18,3.18,0,0,0,2.39,3.45c1.8.61,3.67,1,5.47,1.6a74.71,74.71,0,0,1,50.39,58.33A73.23,73.23,0,0,1,174.62,121.74Z" transform="translate(-18.65 -2.81)"/><path class="cls-1" d="M136,167a2.85,2.85,0,1,0,2.72,2.85A2.66,2.66,0,0,0,136,167Z" transform="translate(-18.65 -2.81)"/><path class="cls-1" d="M122.56,171.51c0,.93,1,1.31,1.84,1.31a2.34,2.34,0,0,0,2.51-2,4.79,4.79,0,0,0-2.4-.67C123.48,170.17,122.56,170.59,122.56,171.51Z" transform="translate(-18.65 -2.81)"/><path class="cls-1" d="M101.79,58.37a2.21,2.21,0,0,0-2.84,0,31,31,0,0,0-7.48,7A29.2,29.2,0,0,0,85.54,88a29.87,29.87,0,0,0,13.27,20.9c0-1.15-.11-2.29-.13-3.44q-.09-3.13-.09-6.29c0-1.91.09-3.8.15-5.7,0-.74.08-1.5.14-2.25a3.08,3.08,0,0,1-1.65-1.46A2.88,2.88,0,0,1,97,87.6a2.94,2.94,0,0,1,4.65-1.42,2.83,2.83,0,0,1,1,1.54,2.8,2.8,0,0,1-.23,2,3,3,0,0,1-2.2,1.61,85.88,85.88,0,0,0,1.26,17.7c9-6.12,13.67-14.61,14-25.54A29.63,29.63,0,0,0,112,69.74,32.21,32.21,0,0,0,101.79,58.37Z" transform="translate(-18.65 -2.81)"/></svg>