<?xml version="1.0" encoding="utf-8"?>
<!-- Generator: Adobe Illustrator 25.0.0, SVG Export Plug-In . SVG Version: 6.00 Build 0)  -->
<svg version="1.1" id="Layer_1" xmlns="http://www.w3.org/2000/svg" xmlns:xlink="http://www.w3.org/1999/xlink" x="0px" y="0px"
	 viewBox="0 0 200 200" style="enable-background:new 0 0 200 200;" xml:space="preserve">
<style type="text/css">
	.st0{fill:#FFFFFF;}
</style>
<g>
	<g>
		<path class="st0" d="M109.9,158.05c-0.36,1.19-0.63,2.13-0.83,2.9h-0.03c-0.2-0.77-0.47-1.66-0.86-2.88l-0.91-2.85h-1.4
			l-0.94,2.87c-0.39,1.21-0.65,2.1-0.86,2.87h-0.03c-0.21-0.77-0.48-1.71-0.85-2.91l-0.86-2.82h-1.8l2.54,7.46h1.89l0.62-1.98
			c0.38-1.19,0.76-2.42,0.97-3.19h0.03c0.2,0.77,0.56,1.99,0.95,3.19l0.6,1.98h1.87l2.54-7.46h-1.77L109.9,158.05z"/>
		<path class="st0" d="M121.41,155.06c-0.97,0-1.86,0.2-2.73,0.57l0.39,1.31c0.63-0.24,1.5-0.47,2.22-0.47
			c1.13,0,2.11,0.38,2.11,1.54v0.41c-0.63-0.38-1.53-0.53-2.31-0.53c-1.53,0-2.99,0.79-2.99,2.48c0,1.68,1.4,2.42,2.85,2.42
			c1.03,0,2.13-0.44,2.66-1.34h0.05c-0.05,0.44-0.05,0.83-0.05,1.22h1.48v-4.68C125.1,155.76,123.48,155.06,121.41,155.06z
			 M121.34,161.41c-0.73,0-1.54-0.32-1.54-1.1c0-0.77,0.77-1.12,1.63-1.12c0.63,0,1.5,0.23,2.02,0.57
			C123.32,160.86,122.33,161.41,121.34,161.41z"/>
		<path class="st0" d="M116.55,161.36c-0.72,0-1-0.32-1-1.25v-8h-1.69v8.14c0,1.72,0.8,2.61,2.36,2.61c0.42,0,0.89-0.09,1.28-0.21
			l-0.35-1.36C116.97,161.33,116.78,161.36,116.55,161.36z"/>
		<path class="st0" d="M96.17,155.05c-2.45,0-4.03,1.68-4.03,3.93c0,2.22,1.53,3.87,3.91,3.87c2.45,0,4.02-1.68,4.02-3.93
			C100.07,156.69,98.56,155.05,96.17,155.05z M96.1,161.35c-1.37,0-2.27-1.09-2.27-2.43c0-1.3,0.89-2.37,2.3-2.37
			c1.37,0,2.27,1.09,2.27,2.43C98.39,160.27,97.5,161.35,96.1,161.35z"/>
		<path class="st0" d="M83.03,156.45H83c-0.35-0.74-1.34-1.4-2.66-1.4c-2.17,0-3.68,1.59-3.68,3.91c0,2.31,1.51,3.87,3.7,3.87
			c1.3,0,2.17-0.59,2.6-1.37h0.03c-0.05,0.57-0.08,1.04-0.11,1.57c-0.08,1.16-0.88,1.83-2.23,1.83c-0.85,0-1.65-0.21-2.87-0.79
			l-0.63,1.36c1.07,0.63,2.28,0.95,3.53,0.95c2.46,0,3.91-1.31,3.91-3.68v-7.48h-1.57C83.02,155.62,83.02,156.02,83.03,156.45z
			 M80.62,161.33c-1.31,0-2.27-0.98-2.27-2.42c0-1.37,0.95-2.37,2.3-2.37c1.31,0,2.25,1,2.25,2.43
			C82.9,160.36,81.96,161.33,80.62,161.33z"/>
		<path class="st0" d="M88.38,156.44h-0.03c0.03-0.44,0.05-0.83,0.05-1.22h-1.57v7.46h1.69v-3.87c0-1.36,0.77-2.22,1.93-2.22
			c0.27,0,0.51,0.03,0.74,0.12l0.44-1.5c-0.3-0.11-0.66-0.15-1.01-0.15C89.48,155.06,88.68,155.7,88.38,156.44z"/>
		<path class="st0" d="M75.24,152.1h-1.78l-0.57,2.33h-1.93l0.57-2.33h-1.78l-0.57,2.33h-1.6v1.5h1.22l-0.76,3.1h-1.53v1.51h1.15
			l-0.53,2.14h1.78l0.54-2.14h1.93l-0.54,2.14h1.78l0.53-2.14h1.57v-1.51h-1.19l0.75-3.1h1.51v-1.5h-1.13L75.24,152.1z
			 M71.78,159.05h-2.01l0.77-3.16h2.02L71.78,159.05z"/>
		<path class="st0" d="M131.52,155.05c-1.33,0-2.27,0.63-2.72,1.43h-0.03c0.09-0.59,0.14-1.33,0.14-2.1v-2.28h-1.69v10.57h1.57
			v-1.22h0.05c0.35,0.74,1.33,1.39,2.63,1.39c2.08,0,3.67-1.56,3.67-3.94C135.13,156.54,133.56,155.05,131.52,155.05z
			 M131.11,161.35c-1.3,0-2.22-1-2.22-2.4c0-1.4,0.92-2.4,2.25-2.4c1.34,0,2.3,1,2.3,2.4C133.44,160.36,132.47,161.35,131.11,161.35
			z"/>
		<path class="st0" d="M80.65,156.54c-1.34,0-2.3,1-2.3,2.37c0,1.43,0.95,2.42,2.27,2.42c1.34,0,2.28-0.97,2.28-2.36
			C82.9,157.54,81.96,156.54,80.65,156.54z"/>
		<path class="st0" d="M96.13,156.54c-1.4,0-2.3,1.07-2.3,2.37c0,1.34,0.89,2.43,2.27,2.43c1.4,0,2.3-1.07,2.3-2.37
			C98.39,157.63,97.5,156.54,96.13,156.54z"/>
		<polygon class="st0" points="69.77,159.05 71.78,159.05 72.56,155.89 70.54,155.89 		"/>
		<path class="st0" d="M166.2,93.06c-2.83-9.03-7.3-17.16-13.47-24.33c-7.01-8.15-15.49-14.33-25.43-18.44
			c-2.41-1-4.9-1.78-7.36-2.65c-0.53-0.19-0.67-0.52-0.67-1.04c0.01-3.57,0-7.14,0-10.71c0-1.29,0-1.31,1.3-1.28
			c2.89,0.05,5.27-0.87,6.92-3.39c1.2-1.83,1.18-3.86,1.12-5.91c-0.12-3.87-3.39-7.04-7.26-7.04c-7.09,0-14.18,0-21.26,0
			c-6.8,0-13.61,0.04-20.41-0.03c-1.74-0.02-3.25,0.47-4.63,1.43c-1.89,1.31-2.92,3.11-2.95,5.43c-0.01,0.87-0.01,1.74,0,2.61
			c0.03,2.69,1.35,4.59,3.59,5.94c1.79,1.07,3.79,0.95,5.75,0.93c0.47,0,0.59,0.14,0.59,0.6c-0.02,3.85-0.02,7.71,0.01,11.56
			c0,0.56-0.15,0.8-0.7,0.96c-4.67,1.36-9.16,3.17-13.43,5.52C56.6,59.44,47.63,68.08,41.2,79.31c-4.95,8.64-8.03,17.94-8.74,27.87
			c-0.35,4.9-0.12,9.87,0.27,14.78c0.5,6.42,2.36,12.56,4.92,18.46c5.44,12.54,13.85,22.61,25.24,30.17
			c9.88,6.56,20.73,10.45,32.59,11.16c6.34,0.38,12.7,0.27,18.97-1.08c15.41-3.32,28.31-10.89,38.51-22.89
			c9.99-11.75,15.43-25.41,16.23-40.83C169.62,108.82,168.64,100.84,166.2,93.06z M79.64,30.12c-1.87,0-2.91-0.81-3.18-2.66
			c-0.12-0.79-0.08-1.64,0.09-2.42c0.32-1.5,1.33-2.24,2.94-2.25c4.94-0.03,9.88-0.05,14.81-0.06c8.62-0.01,17.23-0.01,25.85,0.01
			c0.72,0,1.45,0.09,2.15,0.26c0.96,0.23,1.64,0.89,1.77,1.85c0.13,1.01,0.18,2.07,0.01,3.06c-0.24,1.45-1.42,2.21-3.08,2.21
			c-6.93,0-13.86,0-20.78,0c0,0,0,0,0,0C93.35,30.13,86.5,30.13,79.64,30.12z M75.8,155.92h-1.51l-0.75,3.1h1.19v1.51h-1.57
			l-0.53,2.14h-1.78l0.54-2.14h-1.93l-0.54,2.14h-1.78l0.53-2.14h-1.15v-1.51h1.53l0.76-3.1h-1.22v-1.5h1.6l0.57-2.33h1.78
			l-0.57,2.33h1.93l0.57-2.33h1.78l-0.57,2.33h1.13V155.92z M84.59,162.69c0,2.37-1.45,3.68-3.91,3.68c-1.25,0-2.46-0.32-3.53-0.95
			l0.63-1.36c1.22,0.57,2.02,0.79,2.87,0.79c1.36,0,2.16-0.66,2.23-1.83c0.03-0.53,0.06-1,0.11-1.57h-0.03
			c-0.42,0.79-1.3,1.37-2.6,1.37c-2.19,0-3.7-1.56-3.7-3.87c0-2.33,1.51-3.91,3.68-3.91c1.31,0,2.31,0.66,2.66,1.4h0.03
			c-0.02-0.44-0.02-0.83-0.02-1.24h1.57V162.69z M91.19,156.71c-0.23-0.09-0.47-0.12-0.74-0.12c-1.16,0-1.93,0.86-1.93,2.22v3.87
			h-1.69v-7.46h1.57c0,0.39-0.02,0.79-0.05,1.22h0.03c0.3-0.74,1.1-1.37,2.24-1.37c0.35,0,0.71,0.05,1.01,0.15L91.19,156.71z
			 M96.05,162.84c-2.39,0-3.91-1.65-3.91-3.87c0-2.25,1.59-3.93,4.03-3.93c2.39,0,3.9,1.65,3.9,3.87
			C100.07,161.16,98.5,162.84,96.05,162.84z M110.01,162.68h-1.87l-0.6-1.98c-0.39-1.19-0.76-2.42-0.95-3.19h-0.03
			c-0.21,0.77-0.59,1.99-0.97,3.19l-0.62,1.98h-1.89l-2.54-7.46h1.8l0.86,2.82c0.36,1.21,0.63,2.14,0.85,2.91h0.03
			c0.21-0.77,0.47-1.66,0.86-2.87l0.94-2.87h1.4l0.91,2.85c0.39,1.22,0.66,2.11,0.86,2.88h0.03c0.2-0.77,0.47-1.71,0.83-2.9
			l0.88-2.84h1.77L110.01,162.68z M116.22,162.86c-1.56,0-2.36-0.89-2.36-2.61v-8.14h1.69v8c0,0.94,0.27,1.25,1,1.25
			c0.23,0,0.42-0.03,0.6-0.08l0.35,1.36C117.11,162.77,116.64,162.86,116.22,162.86z M125.1,162.68h-1.48c0-0.39,0-0.79,0.05-1.22
			h-0.05c-0.53,0.91-1.63,1.34-2.66,1.34c-1.45,0-2.85-0.74-2.85-2.42c0-1.69,1.47-2.48,2.99-2.48c0.78,0,1.68,0.15,2.31,0.53v-0.41
			c0-1.16-0.98-1.54-2.11-1.54c-0.72,0-1.59,0.23-2.22,0.47l-0.39-1.31c0.88-0.38,1.77-0.57,2.73-0.57c2.07,0,3.68,0.69,3.68,2.93
			V162.68z M131.46,162.84c-1.3,0-2.28-0.65-2.63-1.39h-0.05v1.22h-1.57V152.1h1.69v2.28c0,0.77-0.05,1.51-0.14,2.1h0.03
			c0.45-0.8,1.39-1.43,2.72-1.43c2.04,0,3.61,1.5,3.61,3.85C135.13,161.29,133.54,162.84,131.46,162.84z M163.63,118.39
			c-0.48,6.75-2.1,13.29-4.79,19.53c-0.33,0.77-0.68,1.52-0.99,2.3c-0.24,0.6-0.64,0.77-1.27,0.77c-6.57-0.02-13.15-0.01-19.72-0.01
			c-0.98,0-1.95,0-2.93,0c0,0,0,0,0,0c-7.6,0-15.21,0-22.81,0.01c-0.5,0-0.66-0.11-0.66-0.64c0.01-6.87,0-13.75-0.01-20.62
			c0-0.05-0.01-0.11,0-0.16c0.14-0.52,0.29-1.04,0.44-1.56c0.36,0.23,0.74,0.46,1.09,0.71c4.32,3.02,9.05,4.6,14.39,4.66
			c7.59,0.08,13.85-2.74,19.03-8.13c1.05-1.09,1.89-2.39,2.82-3.6c0.49-0.63,0.36-1.22-0.05-1.85c-2.24-3.42-5.1-6.16-8.63-8.24
			c-4.58-2.7-9.54-3.95-14.79-3.43c-8.23,0.81-14.82,4.62-19.39,11.61c-0.12,0.19-0.23,0.39-0.32,0.61
			c1.16-0.06,2.32-0.12,3.49-0.14c1.86-0.04,3.71-0.08,5.57-0.07c1.68,0.01,3.36,0.08,5.05,0.13c0.66,0.02,1.33,0.08,2,0.12
			c0.27-0.65,0.67-1.15,1.29-1.46c0.62-0.32,1.28-0.37,1.94-0.17c1.12,0.34,1.89,1.45,1.83,2.62c-0.06,1.16-0.94,2.18-2.08,2.4
			c-0.59,0.12-1.15,0.05-1.69-0.23c-0.79-0.41-1.23-1.08-1.42-1.95c-5.51-0.04-10.99,0.09-16.37,1.26
			c-0.03,9.15-0.01,18.3,0.02,27.45c0,0.52-0.1,0.71-0.66,0.69c-1.63-0.04-3.27-0.04-4.9-0.01c-0.51,0.01-0.65-0.15-0.65-0.67
			c0.03-9.19,0.03-18.38,0.07-27.58c-5.22-1.07-10.53-1.19-15.87-1.16c-0.19,0.87-0.63,1.55-1.42,1.95
			c-0.53,0.27-1.1,0.34-1.69,0.23c-1.13-0.22-2.02-1.25-2.08-2.4c-0.06-1.18,0.71-2.29,1.83-2.62c0.67-0.2,1.32-0.14,1.94,0.17
			c0.61,0.31,1.02,0.81,1.29,1.46c0.67-0.04,1.34-0.1,2-0.12c1.68-0.05,3.36-0.12,5.05-0.13c1.86-0.01,3.72,0.02,5.57,0.07
			c1.04,0.02,2.07,0.07,3.11,0.12c-0.17-0.51-0.41-0.99-0.75-1.46c-4.28-6.03-10.02-9.78-17.35-10.76
			c-9.87-1.32-17.91,2.1-24.03,9.94c-2.11,2.71-2.06,2.17,0.01,4.9c4.3,5.66,10.01,9.07,17.03,10c6.34,0.84,12.28-0.55,17.61-4.21
			c0.54-0.37,1.18-0.61,1.77-0.91c0.03,0.59,0.09,1.19,0.09,1.78c0.01,6.91,0.01,13.82,0.03,20.73c0,0.54-0.15,0.69-0.68,0.68
			c-7.65-0.02-15.3-0.02-22.95-0.02c-7.96,0-15.92-0.02-23.88,0.02c-0.92,0-1.38-0.32-1.74-1.11c-1.91-4.18-3.3-8.51-4.36-12.98
			c-1.45-6.16-1.6-12.41-1.13-18.63c1.2-15.97,7.82-29.47,19.33-40.54c7.82-7.52,17.07-12.54,27.57-15.27
			c2.12-0.55,2.74-1.34,2.74-3.53c0-4.57,0-9.13-0.03-13.7c0-0.47,0.13-0.61,0.59-0.61c8.38,0.01,16.77,0.01,25.15,0
			c0.5,0,0.57,0.2,0.57,0.63c-0.01,4.69-0.01,9.38-0.01,14.07c0,1.52,0.57,2.43,2.01,2.92c1.51,0.51,3.09,0.83,4.6,1.34
			c13.78,4.64,24.78,12.94,32.86,25.03c4.9,7.34,8.03,15.39,9.57,24.08C163.8,107.91,164.01,113.16,163.63,118.39z"/>
		<path class="st0" d="M131.14,156.54c-1.33,0-2.25,1-2.25,2.4c0,1.4,0.92,2.4,2.22,2.4c1.36,0,2.33-0.98,2.33-2.4
			C133.44,157.54,132.48,156.54,131.14,156.54z"/>
		<path class="st0" d="M119.8,160.3c0,0.79,0.82,1.1,1.54,1.1c1,0,1.98-0.54,2.11-1.65c-0.53-0.35-1.39-0.57-2.02-0.57
			C120.57,159.19,119.8,159.53,119.8,160.3z"/>
		<path class="st0" d="M102.78,61.35c-0.83-0.6-1.54-0.61-2.4-0.03c-2.42,1.61-4.54,3.57-6.29,5.86
			c-4.33,5.66-6.03,12.13-4.99,19.15c1.11,7.5,4.98,13.34,11.18,17.6c-0.05-0.97-0.09-1.93-0.12-2.9c-0.04-1.76-0.07-3.53-0.06-5.29
			c0.01-1.6,0.07-3.2,0.13-4.79c0.02-0.63,0.07-1.26,0.11-1.9c-0.62-0.26-1.09-0.64-1.39-1.22c-0.3-0.59-0.35-1.21-0.16-1.84
			c0.46-1.53,2.41-2.37,3.91-1.2c0.42,0.33,0.71,0.79,0.83,1.3c0.15,0.6,0.09,1.18-0.19,1.73c-0.39,0.75-1.03,1.17-1.85,1.35
			c-0.03,5.02,0.07,10,1.06,14.9c7.58-5.15,11.52-12.3,11.76-21.51c-0.01-4.13-1.04-7.97-2.92-11.62
			C109.34,66.98,106.36,63.92,102.78,61.35z"/>
	</g>
</g>
<g>
</g>
<g>
</g>
<g>
</g>
<g>
</g>
<g>
</g>
<g>
</g>
<g>
</g>
<g>
</g>
<g>
</g>
<g>
</g>
<g>
</g>
<g>
</g>
<g>
</g>
<g>
</g>
<g>
</g>
</svg>
