<svg id="Layer_1" data-name="Layer 1" xmlns="http://www.w3.org/2000/svg" viewBox="0 0 162.7 194.39"><defs><style>.cls-1{fill:#376271;}.cls-2{fill:#0c9;}</style></defs><path class="cls-1" d="M75.77,169.94a2.86,2.86,0,1,1,2.72-3v.18a2.7,2.7,0,0,1-2.58,2.82Z" transform="translate(-0.03 -0.06)"/><path class="cls-1" d="M46.89,167.19H44.5l.92-3.74h2.4Z" transform="translate(-0.03 -0.06)"/><path class="cls-1" d="M82.85,106.27a86,86,0,0,1-1.26-17.7A3,3,0,0,0,83.79,87,2.84,2.84,0,0,0,84,85a2.8,2.8,0,0,0-1-1.54,2.94,2.94,0,0,0-4.14.4A2.87,2.87,0,0,0,78.54,87a3.11,3.11,0,0,0,1.65,1.46c-.06.75-.11,1.51-.14,2.25-.06,1.9-.13,3.79-.15,5.7q0,3.15.09,6.29c0,1.15.08,2.29.13,3.44A29.85,29.85,0,0,1,66.89,85.19a29.19,29.19,0,0,1,5.93-22.74,31.11,31.11,0,0,1,7.48-7,2.21,2.21,0,0,1,2.84,0A32.29,32.29,0,0,1,93.35,66.93a29.66,29.66,0,0,1,3.47,13.8Q96.37,97.13,82.85,106.27Z" transform="translate(-0.03 -0.06)"/><path class="cls-2" d="M57.42,164.19a2.85,2.85,0,0,0,0,5.7,2.64,2.64,0,0,0,2.71-2.56,1.92,1.92,0,0,0,0-.24,2.67,2.67,0,0,0-2.43-2.89Z" transform="translate(-0.03 -0.06)"/><path class="cls-2" d="M75.81,164.19a2.86,2.86,0,1,0,2.67,3,.61.61,0,0,0,0-.14A2.67,2.67,0,0,0,76,164.2Z" transform="translate(-0.03 -0.06)"/><polygon class="cls-2" points="44.47 167.15 46.86 167.15 47.79 163.41 45.38 163.41 44.47 167.15"/><path class="cls-2" d="M159,88.84A80.56,80.56,0,0,0,143,60a79.35,79.35,0,0,0-30.2-21.9c-2.86-1.19-5.82-2.12-8.73-3.14a1.1,1.1,0,0,1-.8-1.25V21c0-1.53,0-1.56,1.55-1.53,3.43.07,6.27-1,8.23-4,1.41-2.17,1.4-4.59,1.33-7A8.7,8.7,0,0,0,105.78.06H56.3a9.14,9.14,0,0,0-5.49,1.7,7.62,7.62,0,0,0-3.46,6.43v3.1a7.93,7.93,0,0,0,4.26,7c2.13,1.27,4.5,1.12,6.83,1.11.56,0,.7.16.7.71V33.84c0,.66-.17,1-.82,1.14a78.77,78.77,0,0,0-16,6.55,80.59,80.59,0,0,0-31.74,31A77.07,77.07,0,0,0,.23,105.63a118.33,118.33,0,0,0,.29,17.56,68.34,68.34,0,0,0,5.83,21.9,80.73,80.73,0,0,0,30,35.83A77.48,77.48,0,0,0,75,194.19a83.07,83.07,0,0,0,22.53-1.28A81.69,81.69,0,0,0,159.06,88.84ZM56.23,14.1c-2.22,0-3.45-1-3.78-3.16a8.38,8.38,0,0,1,.11-2.87A3.19,3.19,0,0,1,56,5.4c5.86,0,11.74-.07,17.59-.07h30.7a10.92,10.92,0,0,1,2.55.31A2.6,2.6,0,0,1,109,7.84a12.27,12.27,0,0,1,0,3.63c-.27,1.72-1.64,2.63-3.64,2.65H80.67Q68.43,14.09,56.23,14.1ZM51.67,163.49h-1.8l-.89,3.7H50.4V169H48.54l-.62,2.55H45.8l.65-2.55h-2.3l-.65,2.55H41.35L42,169H40.64v-1.8h1.81l.9-3.7H41.88v-1.78h1.91l.67-2.77h2.12l-.67,2.77H48.2l.68-2.77H51l-.64,2.77H51.7Zm5.79,12.42a8.15,8.15,0,0,1-4.2-1.13l.76-1.62a7.93,7.93,0,0,0,3.4.93c1.62,0,2.57-.79,2.66-2.18,0-.62.07-1.18.12-1.86h0a3.32,3.32,0,0,1-3.08,1.63,4.62,4.62,0,0,1,0-9.23,3.44,3.44,0,0,1,3.16,1.67h0v-1.47h1.87v8.89h0C62.11,174.36,60.35,175.91,57.46,175.91ZM70,164.42a2.21,2.21,0,0,0-.88-.15c-1.38,0-2.29,1-2.29,2.64v4.59h-2v-8.86h1.87a12.38,12.38,0,0,1-.06,1.46h0a2.8,2.8,0,0,1,2.66-1.64,4.06,4.06,0,0,1,1.2.18Zm5.76,7.29a4.4,4.4,0,0,1-4.64-4.15,3.23,3.23,0,0,1,0-.44,4.51,4.51,0,0,1,4.35-4.67h.44a4.39,4.39,0,0,1,4.63,4.14,3.38,3.38,0,0,1,0,.45,4.51,4.51,0,0,1-4.33,4.67Zm16.58-.2H90.06l-.71-2.32c-.48-1.42-.89-2.88-1.14-3.78h0c-.25.92-.7,2.36-1.14,3.78l-.73,2.35H84.1l-3-8.86h2.13l1,3.35c.44,1.43.76,2.55,1,3.46h0c.26-.92.56-2,1-3.41l1.11-3.4H89l1.08,3.39c.47,1.46.78,2.51,1,3.43h0c.23-.92.55-2,1-3.44l1-3.38h2.26Zm7.37.21c-1.85,0-2.79-1.05-2.79-3.1V159h2v9.51c0,1.1.32,1.48,1.19,1.48a2.82,2.82,0,0,0,.71-.09l.42,1.62A5.32,5.32,0,0,1,99.66,171.72Zm10.53-.21h-1.74c0-.47,0-.93,0-1.46h0a3.59,3.59,0,0,1-3.16,1.59c-1.73,0-3.39-.87-3.39-2.87s1.74-2.94,3.55-2.94a5.57,5.57,0,0,1,2.74.62V166c0-1.38-1.16-1.82-2.51-1.82a8.18,8.18,0,0,0-2.63.55l-.47-1.56a8,8,0,0,1,3.24-.68c2.45,0,4.37.82,4.37,3.48Zm7.57.2a3.37,3.37,0,0,1-3.11-1.65h-.06v1.46h-1.86V159h2v2.71a16.07,16.07,0,0,1-.16,2.5h0a3.55,3.55,0,0,1,3.23-1.7,4.24,4.24,0,0,1,4.28,4.2c0,.12,0,.25,0,.37a4.34,4.34,0,0,1-4,4.65ZM156,118.93a71.16,71.16,0,0,1-5.69,23.19c-.39.9-.81,1.81-1.17,2.73a1.38,1.38,0,0,1-1.51.91h-58V122c.18-.62.34-1.25.52-1.85.43.28.87.54,1.29.83a30.35,30.35,0,0,0,39.68-4.11,52.88,52.88,0,0,0,3.34-4.28,1.7,1.7,0,0,0-.06-2.2,30.76,30.76,0,0,0-10.25-9.79,28.57,28.57,0,0,0-17.56-4.08c-9.78,1-17.59,5.48-23,13.79a4.14,4.14,0,0,0-.38.72c1.38-.06,2.75-.13,4.14-.17,2.2,0,4.42-.1,6.62-.08,2,0,4,.09,6,.16.79,0,1.58.09,2.38.14a3.12,3.12,0,0,1,1.52-1.73,3,3,0,0,1,2.31-.21,3.08,3.08,0,0,1-.29,6,3,3,0,0,1-2-.27,3.16,3.16,0,0,1-1.68-2.32c-6.55,0-13,.11-19.44,1.5q-.06,15.86,0,31.71H80.06c0-10.57.07-21.14,0-31.71-6.4-1.39-12.89-1.54-19.44-1.5a3.17,3.17,0,0,1-1.69,2.32,3,3,0,0,1-2,.27,3.08,3.08,0,0,1-.3-6,3,3,0,0,1,2.31.21,3.21,3.21,0,0,1,1.53,1.73c.79,0,1.59-.11,2.37-.14,2-.07,4-.15,6-.16,2.2,0,4.41,0,6.61.08,1.39,0,2.77.11,4.15.17a4.14,4.14,0,0,0-.38-.72,29.75,29.75,0,0,0-23-13.79,28.57,28.57,0,0,0-17.56,4.08,30.76,30.76,0,0,0-10.25,9.79,1.7,1.7,0,0,0-.07,2.2,53,53,0,0,0,3.35,4.28A30.33,30.33,0,0,0,71.35,121c.42-.29.87-.55,1.3-.83.18.6.34,1.23.51,1.85a.61.61,0,0,1,0,.19v23.54H15.22a2,2,0,0,1-2.06-1.32A82.21,82.21,0,0,1,8,129a71.85,71.85,0,0,1-1.35-22.13c1.43-19,9.28-35,22.94-48.14A73.07,73.07,0,0,1,62.35,40.64c2.51-.64,3.25-1.59,3.25-4.2V20.18c0-.56.16-.73.7-.73H96.16c.59,0,.68.24.68.75V36.92a3.18,3.18,0,0,0,2.39,3.45c1.8.61,3.67,1,5.47,1.6a74.72,74.72,0,0,1,50.39,58.33,73.15,73.15,0,0,1,.88,18.63Z" transform="translate(-0.03 -0.06)"/><path class="cls-2" d="M117.35,164.19a2.85,2.85,0,1,0,2.72,3V167a2.65,2.65,0,0,0-2.46-2.84Z" transform="translate(-0.03 -0.06)"/><path class="cls-2" d="M103.91,168.7c0,.93,1,1.31,1.84,1.31a2.34,2.34,0,0,0,2.51-2,4.82,4.82,0,0,0-2.4-.67C104.83,167.36,103.91,167.78,103.91,168.7Z" transform="translate(-0.03 -0.06)"/><path class="cls-2" d="M83.14,55.56a2.21,2.21,0,0,0-2.84,0,31.11,31.11,0,0,0-7.48,7,29.23,29.23,0,0,0-5.93,22.63,29.85,29.85,0,0,0,13.27,20.9c0-1.15-.11-2.29-.13-3.44-.06-2.09-.09-4.18-.09-6.29,0-1.91.09-3.8.15-5.7,0-.74.08-1.5.14-2.25A3.11,3.11,0,0,1,78.58,87a2.85,2.85,0,0,1-.23-2.16A2.94,2.94,0,0,1,82,82.85a3,3,0,0,1,1,.52,2.8,2.8,0,0,1,1,1.54,2.84,2.84,0,0,1-.23,2,3,3,0,0,1-2.2,1.61,86,86,0,0,0,1.26,17.7c9-6.12,13.67-14.61,14-25.54a29.57,29.57,0,0,0-3.48-13.75A32.22,32.22,0,0,0,83.14,55.56Z" transform="translate(-0.03 -0.06)"/></svg>