<?xml version="1.0" encoding="utf-8"?>
<!-- Generator: Adobe Illustrator 25.0.0, SVG Export Plug-In . SVG Version: 6.00 Build 0)  -->
<svg version="1.1" id="Layer_1" xmlns="http://www.w3.org/2000/svg" xmlns:xlink="http://www.w3.org/1999/xlink" x="0px" y="0px"
	 viewBox="0 0 200 200" style="enable-background:new 0 0 200 200;" xml:space="preserve">
<style type="text/css">
	.st0{fill:#376271;}
	.st1{fill:none;}
	.st2{fill:#FFFFFF;}
</style>
<g>
	<g>
		<path class="st0" d="M42.79,172.78v11.89c-3.08,3.12-6.76,4.6-11.41,4.6c-8.65,0-14.41-5.72-14.41-14.49
			c0-8.6,6.12-14.69,14.81-14.69c4.08,0,7.6,1.52,10.17,3.68l-2.6,3.44c-2.16-1.8-4.68-2.8-7.52-2.8c-6.04,0-10.13,4.08-10.13,10.21
			c0,6.36,3.84,10.37,9.85,10.37c2.76,0,4.92-0.72,6.96-2.24v-5.88h-7.8v-4.08H42.79z"/>
		<path class="st0" d="M47.43,168.94h4.16c0,1.04-0.04,2.08-0.12,3.24h0.08c0.8-1.96,2.92-3.64,5.92-3.64c0.92,0,1.88,0.12,2.68,0.4
			L59,172.9c-0.6-0.24-1.24-0.32-1.96-0.32c-3.08,0-5.12,2.28-5.12,5.88v10.25h-4.48V168.94z"/>
		<path class="st0" d="M61.11,178.9c0-5.96,4.2-10.41,10.69-10.41c6.32,0,10.33,4.36,10.33,10.25c0,5.96-4.16,10.41-10.65,10.41
			C65.16,189.15,61.11,184.79,61.11,178.9z M77.68,178.9c0-3.56-2.36-6.44-6-6.44c-3.72,0-6.08,2.84-6.08,6.28
			c0,3.56,2.36,6.44,6,6.44C75.32,185.19,77.68,182.35,77.68,178.9z"/>
		<path class="st0" d="M82.96,168.94h4.76l2.28,7.48c0.96,3.2,1.68,5.68,2.24,7.72h0.08c0.56-2.04,1.24-4.4,2.28-7.6l2.48-7.6h3.72
			l2.4,7.56c1.04,3.24,1.76,5.6,2.28,7.64h0.08c0.52-2.04,1.24-4.52,2.2-7.68l2.32-7.52h4.68l-6.72,19.77h-4.96l-1.6-5.24
			c-1.04-3.16-2-6.4-2.52-8.45h-0.08c-0.56,2.04-1.56,5.28-2.56,8.45l-1.64,5.24h-5L82.96,168.94z"/>
		<path class="st0" d="M137.91,184.47v4.24H118.5v-28.02h4.64v23.77H137.91z"/>
		<path class="st0" d="M158.08,176.3v12.41h-3.92c0-1.04,0-2.08,0.12-3.24h-0.12c-1.4,2.4-4.32,3.56-7.04,3.56
			c-3.84,0-7.56-1.96-7.56-6.4c0-4.48,3.88-6.56,7.92-6.56c2.08,0,4.44,0.4,6.12,1.4v-1.08c0-3.08-2.6-4.08-5.6-4.08
			c-1.92,0-4.2,0.6-5.88,1.24l-1.04-3.48c2.32-1,4.68-1.52,7.24-1.52C153.8,168.54,158.08,170.38,158.08,176.3z M153.72,180.98
			c-1.4-0.92-3.68-1.52-5.36-1.52c-2.28,0-4.32,0.92-4.32,2.96c0,2.08,2.16,2.92,4.08,2.92
			C150.76,185.35,153.36,183.91,153.72,180.98z"/>
		<path class="st0" d="M167.56,185.47h-0.12v3.24h-4.16v-28.02h4.48v6.04c0,2.04-0.12,4-0.36,5.56h0.08c1.2-2.12,3.68-3.8,7.2-3.8
			c5.4,0,9.57,3.96,9.57,10.21c0,6.32-4.2,10.45-9.73,10.45C171.09,189.15,168.48,187.43,167.56,185.47z M179.77,178.82
			c0-3.72-2.52-6.36-6.08-6.36c-3.52,0-5.96,2.64-5.96,6.36c0,3.72,2.44,6.36,5.88,6.36C177.21,185.19,179.77,182.59,179.77,178.82z
			"/>
	</g>
	<g>
		<path class="st1" d="M146.3,63.41c-7.11-10.64-16.79-17.94-28.91-22.02c-1.33-0.45-2.72-0.73-4.05-1.18
			c-1.26-0.43-1.77-1.23-1.77-2.56c0-4.13,0-8.25,0.01-12.38c0-0.38-0.06-0.56-0.5-0.56c-7.37,0.01-14.75,0.01-22.12,0
			c-0.41,0-0.53,0.13-0.52,0.54c0.02,4.02,0.02,8.03,0.02,12.05c0,1.93-0.55,2.62-2.41,3.11c-9.23,2.4-17.37,6.81-24.25,13.43
			c-10.13,9.74-15.94,21.62-17,35.66c-0.41,5.48-0.28,10.98,1,16.39c0.93,3.93,2.15,7.75,3.83,11.42c0.32,0.7,0.72,0.98,1.53,0.98
			c7-0.03,14-0.02,21-0.02c6.73,0,13.46,0,20.19,0.02c0.47,0,0.6-0.12,0.6-0.6c-0.02-6.08-0.02-12.16-0.03-18.24
			c0-0.52-0.05-1.04-0.08-1.56c-0.52,0.26-1.08,0.47-1.55,0.8c-4.69,3.22-9.91,4.44-15.49,3.71c-6.18-0.81-11.2-3.82-14.98-8.79
			c-1.82-2.4-1.87-1.93-0.01-4.31c5.38-6.9,12.46-9.91,21.14-8.75c6.45,0.86,11.5,4.16,15.26,9.47c0.29,0.42,0.51,0.84,0.66,1.28
			c-0.91-0.04-1.82-0.09-2.73-0.11c-1.63-0.04-3.27-0.07-4.9-0.06c-1.48,0.01-2.96,0.07-4.44,0.12c-0.58,0.02-1.17,0.07-1.76,0.1
			c-0.24-0.57-0.59-1.01-1.13-1.28c-0.55-0.28-1.12-0.33-1.71-0.15c-0.99,0.3-1.67,1.27-1.61,2.31c0.05,1.02,0.83,1.92,1.83,2.11
			c0.52,0.1,1.02,0.04,1.49-0.2c0.7-0.36,1.09-0.95,1.25-1.72c4.7-0.03,9.37,0.07,13.96,1.02c-0.03,8.09-0.04,16.17-0.06,24.26
			c0,0.45,0.12,0.59,0.57,0.59c1.44-0.02,2.88-0.03,4.31,0.01c0.5,0.01,0.59-0.15,0.58-0.61c-0.02-8.05-0.05-16.1-0.02-24.15
			c4.74-1.03,9.55-1.14,14.4-1.11c0.16,0.77,0.55,1.36,1.25,1.72c0.47,0.24,0.97,0.3,1.49,0.2c1-0.2,1.77-1.1,1.83-2.11
			c0.05-1.03-0.62-2.01-1.61-2.31c-0.59-0.18-1.16-0.13-1.71,0.15c-0.54,0.27-0.9,0.71-1.13,1.28c-0.59-0.04-1.18-0.09-1.76-0.1
			c-1.48-0.05-2.96-0.11-4.44-0.12c-1.63-0.01-3.27,0.02-4.9,0.06c-1.02,0.02-2.05,0.08-3.07,0.13c0.08-0.19,0.17-0.38,0.28-0.54
			c4.03-6.15,9.82-9.5,17.06-10.21c4.61-0.45,8.98,0.65,13.01,3.02c3.1,1.83,5.62,4.24,7.59,7.25c0.36,0.56,0.48,1.07,0.05,1.63
			c-0.82,1.06-1.56,2.2-2.48,3.17c-4.56,4.75-10.06,7.23-16.74,7.15c-4.69-0.05-8.85-1.44-12.65-4.1c-0.31-0.22-0.64-0.41-0.96-0.62
			c-0.13,0.46-0.26,0.91-0.38,1.37c-0.01,0.04,0,0.09,0,0.14c0.01,6.05,0.02,12.1,0.01,18.14c0,0.47,0.15,0.57,0.58,0.56
			c6.69-0.01,13.38-0.01,20.07-0.01c0,0,0,0,0,0c0.86,0,1.72,0,2.58,0c5.78,0,11.56-0.01,17.35,0.01c0.56,0,0.91-0.14,1.12-0.68
			c0.27-0.68,0.58-1.35,0.87-2.02c2.37-5.49,3.79-11.24,4.21-17.18c0.33-4.6,0.15-9.22-0.66-13.81
			C153.36,76.94,150.61,69.86,146.3,63.41z M101.64,85.79c-0.87-4.31-0.96-8.7-0.93-13.11c0.73-0.16,1.29-0.52,1.63-1.19
			c0.25-0.48,0.29-0.99,0.17-1.52c-0.11-0.45-0.37-0.86-0.73-1.14c-1.32-1.03-3.04-0.29-3.44,1.05c-0.17,0.56-0.12,1.1,0.14,1.62
			c0.26,0.51,0.68,0.85,1.22,1.08c-0.03,0.56-0.08,1.12-0.1,1.67c-0.05,1.41-0.1,2.81-0.11,4.22c-0.01,1.55,0.02,3.1,0.06,4.66
			c0.02,0.85,0.06,1.7,0.1,2.55c-5.46-3.75-8.86-8.88-9.83-15.48c-0.91-6.18,0.58-11.86,4.39-16.85c1.54-2.01,3.4-3.73,5.54-5.15
			c0.76-0.51,1.38-0.5,2.11,0.03c3.14,2.25,5.77,4.95,7.56,8.42c1.66,3.21,2.57,6.59,2.57,10.22
			C111.78,74.97,108.31,81.26,101.64,85.79z"/>
		<path class="st1" d="M99.59,20.75c6.09,0,12.19,0,18.28,0c1.46,0,2.5-0.67,2.71-1.95c0.15-0.88,0.11-1.81-0.01-2.69
			c-0.11-0.85-0.71-1.43-1.56-1.63c-0.62-0.15-1.26-0.23-1.89-0.23c-7.58-0.02-15.16-0.02-22.74-0.01c-4.34,0-8.69,0.02-13.03,0.05
			c-1.41,0.01-2.3,0.66-2.58,1.98c-0.15,0.69-0.18,1.44-0.08,2.13c0.24,1.63,1.15,2.34,2.8,2.34
			C87.53,20.75,93.56,20.75,99.59,20.75C99.59,20.75,99.59,20.75,99.59,20.75z"/>
		<path class="st2" d="M101.85,48.22c-0.73-0.53-1.35-0.53-2.11-0.03c-2.13,1.42-4,3.14-5.54,5.15c-3.81,4.98-5.3,10.67-4.39,16.85
			c0.98,6.6,4.38,11.73,9.83,15.48c-0.04-0.85-0.08-1.7-0.1-2.55c-0.04-1.55-0.06-3.1-0.06-4.66c0.01-1.41,0.06-2.81,0.11-4.22
			c0.02-0.55,0.06-1.11,0.1-1.67c-0.54-0.23-0.96-0.56-1.22-1.08c-0.26-0.52-0.31-1.07-0.14-1.62c0.4-1.34,2.12-2.08,3.44-1.05
			c0.37,0.29,0.62,0.69,0.73,1.14c0.13,0.53,0.08,1.04-0.17,1.52c-0.34,0.66-0.9,1.03-1.63,1.19c-0.03,4.41,0.06,8.79,0.93,13.11
			c6.67-4.53,10.13-10.82,10.35-18.92c0-3.63-0.91-7.01-2.57-10.22C107.62,53.17,105,50.48,101.85,48.22z"/>
		<polygon class="st2" points="76.62,133.58 78.16,133.58 78.77,131.01 77.21,131.01 		"/>
		<path class="st2" d="M84.88,131.54c-1.04,0-1.77,0.81-1.77,1.93c0,1.17,0.73,1.97,1.74,1.97c1.03,0,1.76-0.79,1.76-1.92
			C86.61,132.35,85.89,131.54,84.88,131.54z"/>
		<path class="st2" d="M157.64,76.11c-2.49-7.95-6.42-15.1-11.84-21.4c-6.17-7.17-13.62-12.6-22.37-16.22
			c-2.12-0.88-4.31-1.57-6.47-2.33c-0.47-0.16-0.59-0.45-0.59-0.92c0.01-3.14,0-6.28,0-9.42c0-1.13,0-1.15,1.15-1.13
			c2.54,0.05,4.64-0.77,6.09-2.98c1.05-1.61,1.04-3.4,0.99-5.2c-0.1-3.41-2.98-6.19-6.39-6.19c-6.23,0-12.47,0-18.7,0
			c-5.98,0-11.97,0.03-17.95-0.02c-1.53-0.01-2.86,0.42-4.07,1.26c-1.66,1.15-2.57,2.73-2.6,4.78c-0.01,0.77-0.01,1.53,0,2.3
			c0.02,2.36,1.19,4.04,3.16,5.22c1.58,0.94,3.33,0.83,5.06,0.82c0.41,0,0.52,0.12,0.52,0.53c-0.02,3.39-0.02,6.78,0,10.17
			c0,0.49-0.13,0.7-0.61,0.84c-4.11,1.2-8.06,2.79-11.81,4.85c-9.95,5.48-17.85,13.07-23.51,22.95c-4.36,7.6-7.07,15.78-7.69,24.52
			c-0.31,4.31-0.1,8.68,0.23,13c0.44,5.65,2.08,11.05,4.33,16.24c4.78,11.03,12.19,19.89,22.2,26.54
			c8.69,5.77,18.24,9.19,28.67,9.81c5.58,0.33,11.17,0.24,16.69-0.95c9.04-1.95,17.09-5.56,24.12-10.88h0.2v-0.15
			c3.43-2.62,6.62-5.65,9.56-9.1c8.79-10.34,13.57-22.35,14.28-35.92C160.65,89.98,159.79,82.96,157.64,76.11z M81.5,20.75
			c-1.65,0-2.56-0.71-2.8-2.34c-0.1-0.69-0.07-1.45,0.08-2.13c0.28-1.32,1.17-1.97,2.58-1.98c4.34-0.03,8.69-0.05,13.03-0.05
			c7.58-0.01,15.16-0.01,22.74,0.01c0.63,0,1.28,0.08,1.89,0.23c0.84,0.2,1.45,0.78,1.56,1.63c0.11,0.89,0.16,1.82,0.01,2.69
			c-0.21,1.28-1.25,1.94-2.71,1.95c-6.09,0-12.19,0-18.28,0c0,0,0,0,0,0C93.56,20.75,87.53,20.75,81.5,20.75z M81.26,131.03h-1.16
			l-0.58,2.52h0.92v1.23h-1.21l-0.41,1.75h-1.37l0.42-1.75h-1.49l-0.42,1.75h-1.37l0.41-1.75h-0.88v-1.23h1.17l0.58-2.52h-0.94
			v-1.22h1.23l0.44-1.89h1.37l-0.44,1.89h1.49l0.44-1.89h1.37l-0.44,1.89h0.87V131.03z M87.91,136.54c0,1.93-1.12,3-3.01,3
			c-0.96,0-1.9-0.26-2.72-0.77l0.49-1.11c0.94,0.47,1.56,0.64,2.21,0.64c1.05,0,1.66-0.54,1.72-1.49c0.02-0.43,0.05-0.81,0.08-1.28
			h-0.02c-0.33,0.64-1,1.12-2,1.12c-1.69,0-2.85-1.27-2.85-3.15c0-1.89,1.16-3.19,2.84-3.19c1.01,0,1.78,0.54,2.05,1.14h0.02
			c-0.01-0.36-0.01-0.68-0.01-1.01h1.21V136.54z M92.88,131.67c-0.17-0.07-0.36-0.1-0.57-0.1c-0.9,0-1.49,0.7-1.49,1.81v3.15h-1.3
			v-6.08h1.21c0,0.32-0.01,0.64-0.04,1h0.02c0.23-0.6,0.85-1.12,1.72-1.12c0.27,0,0.55,0.04,0.78,0.12L92.88,131.67z M96.51,136.67
			c-1.84,0-3.01-1.34-3.01-3.15c0-1.83,1.22-3.2,3.1-3.2c1.84,0,3,1.34,3,3.15C99.6,135.3,98.39,136.67,96.51,136.67z
			 M107.14,136.53h-1.44l-0.46-1.61c-0.3-0.97-0.58-1.97-0.73-2.59h-0.02c-0.16,0.63-0.45,1.62-0.74,2.59l-0.48,1.61h-1.45
			l-1.95-6.08h1.38l0.66,2.3c0.28,0.98,0.49,1.75,0.65,2.37h0.02c0.16-0.63,0.36-1.35,0.66-2.34l0.72-2.34h1.08l0.7,2.32
			c0.3,1,0.51,1.72,0.66,2.35h0.02c0.15-0.63,0.36-1.39,0.64-2.36l0.67-2.31h1.36L107.14,136.53z M111.81,136.68
			c-1.2,0-1.81-0.73-1.81-2.13v-6.63h1.3v6.52c0,0.76,0.21,1.02,0.77,1.02c0.17,0,0.33-0.02,0.46-0.06l0.27,1.11
			C112.49,136.6,112.13,136.68,111.81,136.68z M118.53,136.53h-1.14c0-0.32,0-0.64,0.03-1h-0.03c-0.41,0.74-1.26,1.09-2.05,1.09
			c-1.12,0-2.2-0.6-2.2-1.97c0-1.38,1.13-2.02,2.3-2.02c0.6,0,1.29,0.12,1.78,0.43v-0.33c0-0.95-0.76-1.25-1.63-1.25
			c-0.56,0-1.22,0.18-1.71,0.38l-0.3-1.07c0.67-0.31,1.36-0.47,2.1-0.47c1.59,0,2.84,0.57,2.84,2.39V136.53z M123.31,136.67
			c-1,0-1.76-0.53-2.02-1.13h-0.03v1h-1.21v-8.61h1.3v1.86c0,0.63-0.03,1.23-0.1,1.71h0.02c0.35-0.65,1.07-1.17,2.09-1.17
			c1.57,0,2.78,1.22,2.78,3.14C126.13,135.4,124.91,136.67,123.31,136.67z M155.38,98.4c-0.43,5.94-1.84,11.69-4.21,17.18
			c-0.29,0.67-0.6,1.34-0.87,2.02c-0.21,0.53-0.56,0.68-1.12,0.68c-5.78-0.02-11.56-0.01-17.35-0.01c-0.86,0-1.72,0-2.58,0
			c0,0,0,0,0,0c-6.69,0-13.38,0-20.07,0.01c-0.44,0-0.58-0.1-0.58-0.56c0.01-6.05,0-12.1-0.01-18.14c0-0.05-0.01-0.1,0-0.14
			c0.13-0.46,0.25-0.92,0.38-1.37c0.32,0.21,0.65,0.4,0.96,0.62c3.8,2.66,7.96,4.04,12.65,4.1c6.68,0.07,12.18-2.41,16.74-7.15
			c0.92-0.96,1.66-2.1,2.48-3.17c0.43-0.56,0.32-1.07-0.05-1.63c-1.97-3.01-4.49-5.42-7.59-7.25c-4.03-2.38-8.4-3.47-13.01-3.02
			c-7.24,0.71-13.03,4.06-17.06,10.21c-0.11,0.16-0.2,0.35-0.28,0.54c1.02-0.05,2.04-0.1,3.07-0.13c1.63-0.04,3.27-0.07,4.9-0.06
			c1.48,0.01,2.96,0.07,4.44,0.12c0.58,0.02,1.17,0.07,1.76,0.1c0.24-0.57,0.59-1.01,1.13-1.28c0.55-0.28,1.12-0.33,1.71-0.15
			c0.99,0.3,1.67,1.27,1.61,2.31c-0.05,1.02-0.83,1.92-1.83,2.11c-0.52,0.1-1.02,0.04-1.49-0.2c-0.7-0.36-1.09-0.95-1.25-1.72
			c-4.85-0.03-9.66,0.08-14.4,1.11c-0.03,8.05-0.01,16.1,0.02,24.15c0,0.46-0.09,0.62-0.58,0.61c-1.44-0.04-2.87-0.03-4.31-0.01
			c-0.45,0.01-0.57-0.14-0.57-0.59c0.03-8.09,0.03-16.17,0.06-24.26c-4.6-0.95-9.26-1.05-13.96-1.02c-0.16,0.77-0.55,1.36-1.25,1.72
			c-0.47,0.24-0.97,0.3-1.49,0.2c-1-0.2-1.77-1.1-1.83-2.11c-0.05-1.03,0.62-2.01,1.61-2.31c0.59-0.18,1.16-0.13,1.71,0.15
			c0.54,0.27,0.9,0.71,1.13,1.28c0.59-0.04,1.18-0.09,1.76-0.1c1.48-0.05,2.96-0.11,4.44-0.12c1.63-0.01,3.27,0.02,4.9,0.06
			c0.91,0.02,1.82,0.07,2.73,0.11c-0.15-0.44-0.36-0.87-0.66-1.28c-3.76-5.31-8.81-8.6-15.26-9.47c-8.68-1.16-15.76,1.85-21.14,8.75
			c-1.86,2.38-1.81,1.91,0.01,4.31c3.78,4.97,8.8,7.98,14.98,8.79c5.58,0.74,10.8-0.48,15.49-3.71c0.48-0.33,1.03-0.54,1.55-0.8
			c0.03,0.52,0.08,1.04,0.08,1.56c0.01,6.08,0.01,12.16,0.03,18.24c0,0.48-0.13,0.6-0.6,0.6c-6.73-0.02-13.46-0.02-20.19-0.02
			c-7,0-14-0.02-21,0.02c-0.81,0-1.21-0.28-1.53-0.98c-1.68-3.67-2.9-7.49-3.83-11.42c-1.28-5.42-1.41-10.91-1-16.39
			c1.06-14.05,6.88-25.92,17-35.66c6.88-6.61,15.02-11.03,24.25-13.43c1.86-0.48,2.41-1.18,2.41-3.11c0-4.02,0-8.03-0.02-12.05
			c0-0.41,0.12-0.54,0.52-0.54c7.37,0.01,14.75,0.01,22.12,0c0.44,0,0.5,0.18,0.5,0.56c-0.01,4.13-0.01,8.25-0.01,12.38
			c0,1.33,0.51,2.14,1.77,2.56c1.33,0.45,2.72,0.73,4.05,1.18c12.12,4.08,21.79,11.38,28.91,22.02c4.31,6.45,7.06,13.53,8.42,21.19
			C155.53,89.18,155.71,93.79,155.38,98.4z"/>
		<path class="st2" d="M96.57,131.54c-1.08,0-1.77,0.87-1.77,1.93c0,1.09,0.69,1.98,1.74,1.98c1.08,0,1.77-0.87,1.77-1.93
			C98.31,132.42,97.63,131.54,96.57,131.54z"/>
		<path class="st2" d="M123.06,131.54c-1.02,0-1.73,0.81-1.73,1.96c0,1.14,0.71,1.96,1.71,1.96c1.05,0,1.79-0.8,1.79-1.96
			C124.83,132.35,124.1,131.54,123.06,131.54z"/>
		<path class="st2" d="M114.45,134.6c0,0.64,0.63,0.9,1.19,0.9c0.77,0,1.52-0.44,1.63-1.34c-0.41-0.28-1.07-0.47-1.56-0.47
			C115.04,133.69,114.45,133.97,114.45,134.6z"/>
	</g>
</g>
<g>
</g>
<g>
</g>
<g>
</g>
<g>
</g>
<g>
</g>
<g>
</g>
<g>
</g>
<g>
</g>
<g>
</g>
<g>
</g>
<g>
</g>
<g>
</g>
<g>
</g>
<g>
</g>
<g>
</g>
</svg>
